<svg width="38" height="38" viewBox="0 0 38 38" fill="none" xmlns="http://www.w3.org/2000/svg">
<path d="M19 33.25C15.0417 33.25 11.6771 31.8646 8.90625 29.0938C6.13542 26.3229 4.75 22.9583 4.75 19C4.75 15.0417 6.13542 11.6771 8.90625 8.90625C11.6771 6.13542 15.0417 4.75 19 4.75C19.3694 4.75 19.7326 4.76319 20.0893 4.78958C20.4451 4.81597 20.7944 4.85556 21.1375 4.90833C20.0556 5.67361 19.1916 6.66953 18.5456 7.89608C17.8985 9.12369 17.575 10.45 17.575 11.875C17.575 14.25 18.4063 16.2688 20.0688 17.9312C21.7313 19.5938 23.75 20.425 26.125 20.425C27.5764 20.425 28.909 20.1015 30.1229 19.4544C31.3368 18.8084 32.3264 17.9444 33.0917 16.8625C33.1444 17.2056 33.184 17.5549 33.2104 17.9107C33.2368 18.2674 33.25 18.6306 33.25 19C33.25 22.9583 31.8646 26.3229 29.0938 29.0938C26.3229 31.8646 22.9583 33.25 19 33.25Z" fill="#D1DFEF"/>
</svg>
