<svg width="36" height="36" viewBox="0 0 36 36" fill="none" xmlns="http://www.w3.org/2000/svg">
<path d="M17.9999 10.0833C13.6299 10.0833 10.0833 13.63 10.0833 18C10.0833 22.37 13.6299 25.9167 17.9999 25.9167C22.3699 25.9167 25.9166 22.37 25.9166 18C25.9166 13.63 22.3699 10.0833 17.9999 10.0833ZM2.16659 19.5833H5.33325C6.20408 19.5833 6.91658 18.8708 6.91658 18C6.91658 17.1292 6.20408 16.4167 5.33325 16.4167H2.16659C1.29575 16.4167 0.583252 17.1292 0.583252 18C0.583252 18.8708 1.29575 19.5833 2.16659 19.5833ZM30.6666 19.5833H33.8333C34.7041 19.5833 35.4166 18.8708 35.4166 18C35.4166 17.1292 34.7041 16.4167 33.8333 16.4167H30.6666C29.7957 16.4167 29.0833 17.1292 29.0833 18C29.0833 18.8708 29.7957 19.5833 30.6666 19.5833ZM16.4166 2.16668V5.33334C16.4166 6.20418 17.1291 6.91668 17.9999 6.91668C18.8708 6.91668 19.5833 6.20418 19.5833 5.33334V2.16668C19.5833 1.29584 18.8708 0.583344 17.9999 0.583344C17.1291 0.583344 16.4166 1.29584 16.4166 2.16668ZM16.4166 30.6667V33.8333C16.4166 34.7042 17.1291 35.4167 17.9999 35.4167C18.8708 35.4167 19.5833 34.7042 19.5833 33.8333V30.6667C19.5833 29.7958 18.8708 29.0833 17.9999 29.0833C17.1291 29.0833 16.4166 29.7958 16.4166 30.6667ZM8.48408 6.25168C8.3376 6.1049 8.16361 5.98845 7.97207 5.90899C7.78053 5.82954 7.5752 5.78864 7.36783 5.78864C7.16047 5.78864 6.95514 5.82954 6.7636 5.90899C6.57206 5.98845 6.39806 6.1049 6.25159 6.25168C6.1048 6.39816 5.98835 6.57215 5.9089 6.76369C5.82945 6.95523 5.78855 7.16056 5.78855 7.36793C5.78855 7.57529 5.82945 7.78062 5.9089 7.97217C5.98835 8.16371 6.1048 8.3377 6.25159 8.48418L7.92992 10.1625C8.54742 10.78 9.56075 10.78 10.1624 10.1625C10.7641 9.54501 10.7799 8.53168 10.1624 7.93001L8.48408 6.25168ZM28.0699 25.8375C27.9234 25.6907 27.7494 25.5743 27.5579 25.4948C27.3664 25.4154 27.161 25.3745 26.9537 25.3745C26.7463 25.3745 26.541 25.4154 26.3494 25.4948C26.1579 25.5743 25.9839 25.6907 25.8374 25.8375C25.6906 25.984 25.5742 26.158 25.4947 26.3495C25.4153 26.5411 25.3744 26.7464 25.3744 26.9538C25.3744 27.1611 25.4153 27.3665 25.4947 27.558C25.5742 27.7495 25.6906 27.9235 25.8374 28.07L27.5158 29.7483C28.1333 30.3658 29.1466 30.3658 29.7483 29.7483C29.895 29.6019 30.0115 29.4279 30.0909 29.2363C30.1704 29.0448 30.2113 28.8395 30.2113 28.6321C30.2113 28.4247 30.1704 28.2194 30.0909 28.0279C30.0115 27.8363 29.895 27.6623 29.7483 27.5158L28.0699 25.8375ZM29.7483 8.48418C29.895 8.3377 30.0115 8.16371 30.0909 7.97217C30.1704 7.78062 30.2113 7.57529 30.2113 7.36793C30.2113 7.16056 30.1704 6.95523 30.0909 6.76369C30.0115 6.57215 29.895 6.39816 29.7483 6.25168C29.6018 6.1049 29.4278 5.98845 29.2362 5.90899C29.0447 5.82954 28.8394 5.78864 28.632 5.78864C28.4246 5.78864 28.2193 5.82954 28.0278 5.90899C27.8362 5.98845 27.6622 6.1049 27.5158 6.25168L25.8374 7.93001C25.2199 8.54751 25.2199 9.56084 25.8374 10.1625C26.4549 10.7642 27.4683 10.78 28.0699 10.1625L29.7483 8.48418ZM10.1624 28.07C10.3092 27.9235 10.4256 27.7495 10.5051 27.558C10.5846 27.3665 10.6255 27.1611 10.6255 26.9538C10.6255 26.7464 10.5846 26.5411 10.5051 26.3495C10.4256 26.158 10.3092 25.984 10.1624 25.8375C10.0159 25.6907 9.84195 25.5743 9.65041 25.4948C9.45887 25.4154 9.25353 25.3745 9.04617 25.3745C8.8388 25.3745 8.63347 25.4154 8.44193 25.4948C8.25039 25.5743 8.0764 25.6907 7.92992 25.8375L6.25159 27.5158C5.63408 28.1333 5.63408 29.1467 6.25159 29.7483C6.86908 30.35 7.88242 30.3658 8.48408 29.7483L10.1624 28.07Z" fill="#D1DFEF"/>
</svg>
