
<svg width="374" height="14" viewBox="0 0 374 14" fill="none" xmlns="http://www.w3.org/2000/svg">
<path fill-rule="evenodd" clip-rule="evenodd" d="M81.9813 11.507C111.229 12.6021 145.759 9.46645 180.26 6.19661L184.226 5.82032C217.413 2.66995 250.387 -0.460166 278.491 0.0561833C302.899 0.504628 326.995 3.93904 344.993 7.26316C353.991 8.92499 361.463 10.5587 366.684 11.7767C369.294 12.3858 371.342 12.8908 372.736 13.2435C373.122 13.341 373.457 13.4268 373.741 13.5H0.000114441V0.0708661L0.346306 0.154038C0.652458 0.227103 1.10656 0.334355 1.69884 0.471341C2.88342 0.745314 4.62121 1.13824 6.83703 1.61454C11.2687 2.56711 17.6114 3.85326 25.2599 5.18824C40.5546 7.85784 61.0785 10.7244 81.9813 11.507Z" fill="#EF5DA8"/>
</svg>
