<svg xmlns="http://www.w3.org/2000/svg" xmlns:xlink="http://www.w3.org/1999/xlink" viewBox="0 0 289.62 131.83">
  <defs>
    <style>
      .cls-1 {
        fill: url(#linear-gradient);
      }

      .cls-2 {
        fill: #bad2ff;
      }
    </style>
    <linearGradient id="linear-gradient" x1="19.36" y1="61.9" x2="107.15" y2="61.9" gradientUnits="userSpaceOnUse">
      <stop offset="0.07" stop-color="#b1f9ff"/>
      <stop offset="0.92" stop-color="#bad2ff" stop-opacity="0.9"/>
    </linearGradient>
  </defs>
  <g id="Layer_2" data-name="Layer 2">
    <g id="A">
      <g>
        <path class="cls-1" d="M123.59,91c-3.94-17.15-17.32-25-20.7-27.13,2.22-.84,14.55-1.68,14.37-28.53-.17-20-6-26.74-20.06-28.56-12.61-1.62-29,2.1-34.61,15.56-4.81-11.52-17.53-15.92-29-15.92A40.81,40.81,0,0,0,28,6.73C13.89,8.55,8.05,15.26,7.91,35.29,7.7,62.14,20,63,22.29,63.82,18.88,66,5.53,73.8,1.55,91a56.19,56.19,0,0,0,0,26.42c17.15-.24,34.3.22,51.41,0,1.48-13.88,6-24.31,9.66-24.31s9.6,24.31,9.6,24.31c17.11.22,34.26-.24,51.37,0C124.85,113,126.4,103.07,123.59,91ZM62.94,71.7a8.58,8.58,0,1,1,8.57-8.58A8.56,8.56,0,0,1,62.94,71.7Z"/>
        <g>
          <path class="cls-2" d="M136,30.24a2,2,0,0,1,.11-.58l9.32-22.21a2,2,0,0,1,.56-.84,1.4,1.4,0,0,1,.88-.24h2.63a1.32,1.32,0,0,1,.86.24,2,2,0,0,1,.54.84l9.33,22.21a1.91,1.91,0,0,1,.1.58c0,.41-.21.61-.64.61h-4.36a1.31,1.31,0,0,1-.74-.16,1.41,1.41,0,0,1-.41-.59l-1.66-4.25h-8.74l-1.62,4.25a1.42,1.42,0,0,1-.42.59,1.31,1.31,0,0,1-.74.16h-4.35C136.23,30.85,136,30.65,136,30.24Zm15.16-8.53-3-7.78-3,7.78Z"/>
          <path class="cls-2" d="M165.19,30.47a1.56,1.56,0,0,1-.38-1.17V10.76H158.9a1.58,1.58,0,0,1-1.18-.34,1.67,1.67,0,0,1-.33-1.17V7.92a1.75,1.75,0,0,1,.33-1.19,1.54,1.54,0,0,1,1.18-.36h17.79a1.61,1.61,0,0,1,1.2.36,1.69,1.69,0,0,1,.35,1.19V9.25a1.61,1.61,0,0,1-.35,1.15,1.61,1.61,0,0,1-1.2.36h-5.91V29.3a1.6,1.6,0,0,1-.37,1.17,1.75,1.75,0,0,1-1.28.38h-2.67A1.71,1.71,0,0,1,165.19,30.47Z"/>
          <path class="cls-2" d="M193.81,37.75a1.59,1.59,0,0,1-.38-1.17V15.48a13.67,13.67,0,0,1,3.87-1.75,17.12,17.12,0,0,1,4.84-.7q10.65,0,10.66,9.22a9.47,9.47,0,0,1-2.29,6.68,8.28,8.28,0,0,1-6.39,2.46,9.09,9.09,0,0,1-2.75-.39,5.66,5.66,0,0,1-2.11-1.19v6.77a1.67,1.67,0,0,1-.36,1.17,1.71,1.71,0,0,1-1.26.37h-2.59A1.7,1.7,0,0,1,193.81,37.75ZM205.87,26a6.3,6.3,0,0,0,1-3.82,5.14,5.14,0,0,0-1.22-3.85A5.24,5.24,0,0,0,202,17.14a6.18,6.18,0,0,0-2.74.5v6.41a3,3,0,0,0,1,2.41,3.76,3.76,0,0,0,2.58.86A3.61,3.61,0,0,0,205.87,26Z"/>
          <path class="cls-2" d="M216.77,28.93a8.77,8.77,0,0,1-2.64-6.72,8.73,8.73,0,0,1,2.64-6.71Q219.43,13,224.21,13t7.47,2.47a8.73,8.73,0,0,1,2.64,6.71,8.77,8.77,0,0,1-2.64,6.72q-2.66,2.46-7.47,2.46T216.77,28.93Zm10.57-3.05a5.4,5.4,0,0,0,1.08-3.67,5.32,5.32,0,0,0-1.08-3.63,4.56,4.56,0,0,0-6.23,0A5.32,5.32,0,0,0,220,22.21a5.44,5.44,0,0,0,1.08,3.66,4.55,4.55,0,0,0,6.23,0Z"/>
          <path class="cls-2" d="M238.3,28.93a8.77,8.77,0,0,1-2.64-6.72,8.73,8.73,0,0,1,2.64-6.71c1.77-1.65,4.24-2.47,7.44-2.47s5.7.82,7.47,2.47a8.73,8.73,0,0,1,2.64,6.71,8.77,8.77,0,0,1-2.64,6.72q-2.66,2.46-7.47,2.46C242.54,31.39,240.07,30.57,238.3,28.93Zm10.57-3.05A5.4,5.4,0,0,0,250,22.21a5.32,5.32,0,0,0-1.08-3.63,4,4,0,0,0-3.13-1.23,3.9,3.9,0,0,0-3.1,1.23,5.32,5.32,0,0,0-1.08,3.63,5.44,5.44,0,0,0,1.08,3.66,3.91,3.91,0,0,0,3.1,1.24A4,4,0,0,0,248.87,25.88Z"/>
          <path class="cls-2" d="M259.18,30.47a1.6,1.6,0,0,1-.38-1.17V8a1.67,1.67,0,0,1,.38-1.19,1.64,1.64,0,0,1,1.24-.4h2.7a1.71,1.71,0,0,1,1.26.38A1.7,1.7,0,0,1,264.74,8V29.3a1.64,1.64,0,0,1-.36,1.17,1.67,1.67,0,0,1-1.26.38h-2.7A1.68,1.68,0,0,1,259.18,30.47Z"/>
          <path class="cls-2" d="M138,72.43A8.44,8.44,0,0,1,136,66.35,9.89,9.89,0,0,1,137.38,61a9.37,9.37,0,0,1,3.92-3.55,12.86,12.86,0,0,1,5.83-1.26,15.84,15.84,0,0,1,4.52.58,12.86,12.86,0,0,1,3.58,1.65V73a1.16,1.16,0,0,1-.23.83,1.44,1.44,0,0,1-.92.21h-2.84a1.06,1.06,0,0,1-.6-.14.91.91,0,0,1-.3-.47l-.4-1.26A6.39,6.39,0,0,1,147.31,74a10.86,10.86,0,0,1-3.74.57A7.31,7.31,0,0,1,138,72.43Zm10.48-2.84a2.93,2.93,0,0,0,1.17-2.45v-6.3a5.73,5.73,0,0,0-2.59-.54,4.86,4.86,0,0,0-3.8,1.57,6.25,6.25,0,0,0-1.42,4.37,4.54,4.54,0,0,0,1,3.2,3.79,3.79,0,0,0,2.92,1A4.39,4.39,0,0,0,148.52,69.59Z"/>
          <path class="cls-2" d="M159.28,73.67a1.6,1.6,0,0,1-.38-1.17V57.82a.86.86,0,0,1,1.08-1h2.88a1.13,1.13,0,0,1,.65.15.6.6,0,0,1,.25.5l.11,1.26a7.64,7.64,0,0,1,2.81-1.8,10.75,10.75,0,0,1,3.85-.65,6.87,6.87,0,0,1,4.74,1.6,6.12,6.12,0,0,1,1.78,4.77v9.9a1.6,1.6,0,0,1-.38,1.17,1.68,1.68,0,0,1-1.24.38h-2.7a1.73,1.73,0,0,1-1.28-.38,1.6,1.6,0,0,1-.38-1.17V63a2.23,2.23,0,0,0-2.63-2.62,4,4,0,0,0-2.55.81,2.53,2.53,0,0,0-1,2.1V72.5a1.64,1.64,0,0,1-.36,1.17,1.67,1.67,0,0,1-1.26.38h-2.66A1.73,1.73,0,0,1,159.28,73.67Z"/>
          <path class="cls-2" d="M179.82,65.34a10.53,10.53,0,0,1,1-4.77,7.31,7.31,0,0,1,3-3.2,9.29,9.29,0,0,1,4.72-1.14,10.88,10.88,0,0,1,2.79.34,5.21,5.21,0,0,1,2,1v-6.4A1.36,1.36,0,0,1,195,49.57h2.59a1.64,1.64,0,0,1,1.24.4,1.67,1.67,0,0,1,.38,1.19v21a12.42,12.42,0,0,1-3.85,1.77,18.31,18.31,0,0,1-5,.68Q179.82,74.59,179.82,65.34Zm13.54,4.54V63.29a2.68,2.68,0,0,0-.94-2.22,4,4,0,0,0-2.52-.73,3.69,3.69,0,0,0-3.15,1.35,6,6,0,0,0-1,3.72,5.35,5.35,0,0,0,1.19,3.91,4.89,4.89,0,0,0,3.57,1.17A6.09,6.09,0,0,0,193.36,69.88Z"/>
          <path class="cls-2" d="M219.35,74.12a13.14,13.14,0,0,1-3.67-1.36c-.39-.22-.58-.44-.58-.65a1,1,0,0,1,.18-.47l1.26-2.23c.14-.24.29-.36.43-.36a1,1,0,0,1,.54.18,11.07,11.07,0,0,0,2.61,1,10.79,10.79,0,0,0,2.86.43,5.57,5.57,0,0,0,2.29-.34,1.2,1.2,0,0,0,.7-1.17,1.17,1.17,0,0,0-.45-.92,3.87,3.87,0,0,0-1.24-.64c-.53-.18-1.44-.47-2.74-.85a12.42,12.42,0,0,1-4.35-2,4.06,4.06,0,0,1-1.37-3.28A4.31,4.31,0,0,1,218,57.56a10.86,10.86,0,0,1,5.74-1.33A14.24,14.24,0,0,1,230.94,58c.38.22.58.44.58.68a1.06,1.06,0,0,1-.22.54l-1.22,2c-.15.24-.29.36-.44.36a1,1,0,0,1-.5-.22,9.66,9.66,0,0,0-2.12-.83,9.87,9.87,0,0,0-2.45-.32,5.72,5.72,0,0,0-2.27.34,1.23,1.23,0,0,0-.76,1.21,1.26,1.26,0,0,0,.85,1.13,17.09,17.09,0,0,0,2.83,1l2,.57A13.19,13.19,0,0,1,230,65.59a4,4,0,0,1,1.44,1.51,4.9,4.9,0,0,1,.43,2.2,4.49,4.49,0,0,1-2.09,3.8,10.43,10.43,0,0,1-6.08,1.49A19.5,19.5,0,0,1,219.35,74.12Z"/>
          <path class="cls-2" d="M235.24,81a1.63,1.63,0,0,1-.38-1.17V58.68a13.67,13.67,0,0,1,3.87-1.75,17.19,17.19,0,0,1,4.85-.7q10.65,0,10.65,9.22A9.46,9.46,0,0,1,252,72.13a8.32,8.32,0,0,1-6.4,2.46,9.18,9.18,0,0,1-2.75-.39A5.54,5.54,0,0,1,240.7,73v6.77a1.67,1.67,0,0,1-.36,1.17,1.73,1.73,0,0,1-1.26.37h-2.6A1.72,1.72,0,0,1,235.24,81ZM247.3,69.16a6.24,6.24,0,0,0,1-3.82,5.1,5.1,0,0,0-1.23-3.85,5.21,5.21,0,0,0-3.7-1.15,6.12,6.12,0,0,0-2.74.5v6.41a3,3,0,0,0,1,2.41,3.75,3.75,0,0,0,2.57.86A3.6,3.6,0,0,0,247.3,69.16Z"/>
          <path class="cls-2" d="M257.63,72.43a8.44,8.44,0,0,1-2.07-6.08A9.89,9.89,0,0,1,257,61a9.37,9.37,0,0,1,3.92-3.55,12.86,12.86,0,0,1,5.83-1.26,15.84,15.84,0,0,1,4.52.58,12.86,12.86,0,0,1,3.58,1.65V73a1.11,1.11,0,0,1-.23.83,1.44,1.44,0,0,1-.92.21h-2.84a1.06,1.06,0,0,1-.6-.14.91.91,0,0,1-.3-.47l-.4-1.26A6.39,6.39,0,0,1,266.9,74a10.86,10.86,0,0,1-3.74.57A7.31,7.31,0,0,1,257.63,72.43Zm10.48-2.84a2.93,2.93,0,0,0,1.17-2.45v-6.3a5.73,5.73,0,0,0-2.59-.54,4.86,4.86,0,0,0-3.8,1.57,6.25,6.25,0,0,0-1.42,4.37,4.54,4.54,0,0,0,1,3.2,3.79,3.79,0,0,0,2.92,1A4.39,4.39,0,0,0,268.11,69.59Z"/>
          <path class="cls-2" d="M140.22,117.32a13.26,13.26,0,0,1-3.67-1.36c-.39-.22-.58-.44-.58-.65a1,1,0,0,1,.18-.47l1.26-2.23c.15-.24.29-.36.43-.36a1,1,0,0,1,.54.18,11,11,0,0,0,2.62,1,10.68,10.68,0,0,0,2.86.43,5.51,5.51,0,0,0,2.28-.34,1.2,1.2,0,0,0,.7-1.17,1.16,1.16,0,0,0-.44-.92,4,4,0,0,0-1.25-.64c-.53-.18-1.44-.47-2.73-.85a12.39,12.39,0,0,1-4.36-2,4.06,4.06,0,0,1-1.37-3.28,4.32,4.32,0,0,1,2.15-3.89,10.84,10.84,0,0,1,5.74-1.33,14.23,14.23,0,0,1,7.23,1.73c.39.22.58.44.58.68a1,1,0,0,1-.22.54l-1.22,2c-.14.24-.29.36-.43.36a1,1,0,0,1-.51-.22,9.66,9.66,0,0,0-2.12-.83,9.81,9.81,0,0,0-2.45-.32,5.75,5.75,0,0,0-2.27.34,1.22,1.22,0,0,0-.75,1.21,1.25,1.25,0,0,0,.84,1.13,17.44,17.44,0,0,0,2.83,1l2,.57a13.19,13.19,0,0,1,2.84,1.26,4,4,0,0,1,1.44,1.51,4.89,4.89,0,0,1,.44,2.2,4.51,4.51,0,0,1-2.09,3.8,10.47,10.47,0,0,1-6.09,1.49A19.56,19.56,0,0,1,140.22,117.32Z"/>
          <path class="cls-2" d="M160,116.8a8.14,8.14,0,0,1-3.67-3,8.63,8.63,0,0,1-1.35-5q0-4.6,2.53-7c1.7-1.6,4.11-2.41,7.26-2.41s5.44.78,7,2.34a8.91,8.91,0,0,1,2.39,6.66c0,1-.46,1.51-1.37,1.51H160.63a3.51,3.51,0,0,0,1.46,3,6.68,6.68,0,0,0,4,1.06,10.18,10.18,0,0,0,2.63-.3,9.65,9.65,0,0,0,2.16-.89,1.4,1.4,0,0,1,.51-.18c.16,0,.32.14.46.4l1,1.94a1,1,0,0,1,.14.44.76.76,0,0,1-.39.57,10.22,10.22,0,0,1-3.24,1.37,17.73,17.73,0,0,1-4.14.43A13.23,13.23,0,0,1,160,116.8Zm8.87-10a3.77,3.77,0,0,0-1-2.81,4.16,4.16,0,0,0-3.06-1,4.36,4.36,0,0,0-3.13,1,3.65,3.65,0,0,0-1.08,2.79Z"/>
          <path class="cls-2" d="M177.57,116.87a1.6,1.6,0,0,1-.38-1.17V101a1.15,1.15,0,0,1,.22-.83,1.2,1.2,0,0,1,.86-.22h2.88a1,1,0,0,1,.63.15.68.68,0,0,1,.24.5l.14,1.15a7,7,0,0,1,5.4-2.34,7.87,7.87,0,0,1,1.71.16,3.47,3.47,0,0,1,1.17.53.64.64,0,0,1,.32.5,1,1,0,0,1-.07.32l-.9,2.7c-.09.29-.25.44-.47.44A.94.94,0,0,1,189,104a4.77,4.77,0,0,0-2.16-.47,3.86,3.86,0,0,0-2.62.9,3,3,0,0,0-1.05,2.41v8.89a1.64,1.64,0,0,1-.36,1.17,1.67,1.67,0,0,1-1.26.38h-2.66A1.73,1.73,0,0,1,177.57,116.87Z"/>
          <path class="cls-2" d="M200.11,117a2.3,2.3,0,0,1-.6-.81l-7.09-15a1.51,1.51,0,0,1-.14-.54.64.64,0,0,1,.18-.47.67.67,0,0,1,.5-.18h4.14a1.51,1.51,0,0,1,.76.16,1.33,1.33,0,0,1,.43.67l4,9.72,4-9.72a1.39,1.39,0,0,1,.43-.65,1.31,1.31,0,0,1,.76-.18h4.14a.68.68,0,0,1,.5.18.64.64,0,0,1,.18.47,1.77,1.77,0,0,1-.14.54l-7.1,15a2.27,2.27,0,0,1-.57.83,1.53,1.53,0,0,1-.9.21H201A1.44,1.44,0,0,1,200.11,117Z"/>
          <path class="cls-2" d="M215.75,97a1.88,1.88,0,0,1-.58-1.4v-.83a1.88,1.88,0,0,1,.58-1.4,2.11,2.11,0,0,1,1.58-.58h2.09a2.16,2.16,0,0,1,1.62.58,1.92,1.92,0,0,1,.58,1.4v.83A1.92,1.92,0,0,1,221,97a2.16,2.16,0,0,1-1.62.58h-2.09A2.11,2.11,0,0,1,215.75,97Zm0,19.89a1.64,1.64,0,0,1-.36-1.17V101.56A1.36,1.36,0,0,1,217,100h2.67a1.71,1.71,0,0,1,1.28.4,1.66,1.66,0,0,1,.37,1.19V115.7a1.6,1.6,0,0,1-.37,1.17,1.75,1.75,0,0,1-1.28.38H217A1.67,1.67,0,0,1,215.78,116.87Z"/>
          <path class="cls-2" d="M227.27,115.43a8.51,8.51,0,0,1-2.7-6.78,9.26,9.26,0,0,1,1.24-4.83,8.36,8.36,0,0,1,3.58-3.24,12.46,12.46,0,0,1,5.51-1.15,15,15,0,0,1,4,.47,10.29,10.29,0,0,1,3,1.4.71.71,0,0,1,.36.58,1.06,1.06,0,0,1-.22.61l-1.22,2.13c-.17.28-.34.43-.5.43a1.67,1.67,0,0,1-.62-.25,9.26,9.26,0,0,0-2-1,7.65,7.65,0,0,0-2.34-.32,4.67,4.67,0,0,0-3.58,1.39,5.21,5.21,0,0,0-1.32,3.76,5,5,0,0,0,1.32,3.78,5.26,5.26,0,0,0,3.79,1.26,7.85,7.85,0,0,0,2.4-.34,9.39,9.39,0,0,0,2-1,1.43,1.43,0,0,1,.61-.25c.17,0,.33.14.5.43l1.33,2.27a1,1,0,0,1,.18.47c0,.19-.14.38-.43.57a11.48,11.48,0,0,1-3.22,1.44,15.12,15.12,0,0,1-4,.47C231.61,117.79,229.07,117,227.27,115.43Z"/>
          <path class="cls-2" d="M249.86,116.8a8.22,8.22,0,0,1-3.68-3,8.71,8.71,0,0,1-1.34-5q0-4.6,2.53-7c1.7-1.6,4.11-2.41,7.26-2.41s5.44.78,7,2.34a8.91,8.91,0,0,1,2.39,6.66c0,1-.46,1.51-1.37,1.51H250.45a3.51,3.51,0,0,0,1.46,3,6.68,6.68,0,0,0,4,1.06,10.18,10.18,0,0,0,2.63-.3,9.84,9.84,0,0,0,2.16-.89,1.4,1.4,0,0,1,.51-.18c.16,0,.32.14.46.4l1.05,1.94a1,1,0,0,1,.14.44c0,.19-.13.38-.4.57a10.26,10.26,0,0,1-3.23,1.37,17.82,17.82,0,0,1-4.15.43A13.22,13.22,0,0,1,249.86,116.8Zm8.87-10a3.81,3.81,0,0,0-1-2.81,4.16,4.16,0,0,0-3.06-1,4.36,4.36,0,0,0-3.13,1,3.65,3.65,0,0,0-1.08,2.79Z"/>
          <path class="cls-2" d="M270.54,117.32a13.14,13.14,0,0,1-3.67-1.36c-.39-.22-.58-.44-.58-.65a1,1,0,0,1,.18-.47l1.26-2.23c.15-.24.29-.36.43-.36a1,1,0,0,1,.54.18,11.07,11.07,0,0,0,2.61,1,10.81,10.81,0,0,0,2.87.43,5.55,5.55,0,0,0,2.28-.34,1.2,1.2,0,0,0,.7-1.17,1.17,1.17,0,0,0-.45-.92,3.87,3.87,0,0,0-1.24-.64c-.53-.18-1.44-.47-2.73-.85a12.39,12.39,0,0,1-4.36-2,4.06,4.06,0,0,1-1.37-3.28,4.31,4.31,0,0,1,2.14-3.89,10.9,10.9,0,0,1,5.75-1.33,14.23,14.23,0,0,1,7.23,1.73c.38.22.58.44.58.68a1.06,1.06,0,0,1-.22.54l-1.22,2c-.15.24-.29.36-.43.36a1,1,0,0,1-.51-.22,9.66,9.66,0,0,0-2.12-.83,9.87,9.87,0,0,0-2.45-.32,5.75,5.75,0,0,0-2.27.34,1.22,1.22,0,0,0-.75,1.21,1.25,1.25,0,0,0,.84,1.13,17.09,17.09,0,0,0,2.83,1l2,.57a13.19,13.19,0,0,1,2.84,1.26,4,4,0,0,1,1.44,1.51,4.9,4.9,0,0,1,.43,2.2,4.49,4.49,0,0,1-2.09,3.8,10.43,10.43,0,0,1-6.08,1.49A19.5,19.5,0,0,1,270.54,117.32Z"/>
        </g>
      </g>
    </g>
  </g>
</svg>
