<svg xmlns="http://www.w3.org/2000/svg" xmlns:xlink="http://www.w3.org/1999/xlink" viewBox="0 0 407.8 89.24">
  <defs>
    <style>
      .cls-1 {
        fill: url(#linear-gradient);
      }

      .cls-2 {
        fill: #bad2ff;
      }
    </style>
    <linearGradient id="linear-gradient" x1="13.77" y1="39.67" x2="76.22" y2="39.67" gradientUnits="userSpaceOnUse">
      <stop offset="0.07" stop-color="#b1f9ff"/>
      <stop offset="0.92" stop-color="#bad2ff" stop-opacity="0.9"/>
    </linearGradient>
  </defs>
  <g id="Layer_2" data-name="Layer 2">
    <g id="A">
      <path class="cls-1" d="M87.91,60.34C85.11,48.14,75.59,42.57,73.19,41c1.58-.6,10.35-1.2,10.22-20.29C83.29,6.5,79.16,1.73,69.14.43c-9-1.15-20.62,1.5-24.62,11.07C41.1,3.3,32.05.18,23.88.18a28.84,28.84,0,0,0-4,.25C9.88,1.73,5.73,6.5,5.63,20.75,5.48,39.84,14.25,40.44,15.85,41c-2.42,1.53-11.92,7.1-14.74,19.3a39.76,39.76,0,0,0,0,18.79c12.19-.17,24.39.15,36.56,0,1-9.87,4.3-17.29,6.88-17.29s6.82,17.29,6.82,17.29c12.17.15,24.37-.17,36.54,0A39.22,39.22,0,0,0,87.91,60.34ZM44.77,46.64a6.1,6.1,0,1,1,6.1-6.1A6.08,6.08,0,0,1,44.77,46.64Z"/>
      <g>
        <path class="cls-2" d="M103.82,30.2a2,2,0,0,1,.18-.72L113.15,7.6a2.34,2.34,0,0,1,.63-1,1.63,1.63,0,0,1,1-.27h3.28a1.65,1.65,0,0,1,1,.27,2.56,2.56,0,0,1,.63,1l9.14,21.88a2,2,0,0,1,.18.69.65.65,0,0,1-.2.5.8.8,0,0,1-.56.18h-5.58a1.32,1.32,0,0,1-.79-.2,1.37,1.37,0,0,1-.47-.66l-1.26-3.46h-7.56L111.42,30a1.37,1.37,0,0,1-.47.66,1.4,1.4,0,0,1-.83.2h-5.54C104.08,30.85,103.82,30.64,103.82,30.2Zm14.8-8.56-2.2-6.12-2.19,6.12Z"/>
        <path class="cls-2" d="M133.2,30.42a1.86,1.86,0,0,1-.43-1.37V11.63h-5.55a1.74,1.74,0,0,1-1.36-.42,2,2,0,0,1-.36-1.35V8.17a2.14,2.14,0,0,1,.36-1.37,1.74,1.74,0,0,1,1.36-.43h18.4A1.85,1.85,0,0,1,147,6.8a2.08,2.08,0,0,1,.37,1.37V9.86a2,2,0,0,1-.37,1.35,1.85,1.85,0,0,1-1.39.42h-5.54V29.05a1.86,1.86,0,0,1-.44,1.37,2,2,0,0,1-1.47.43h-3.49A2,2,0,0,1,133.2,30.42Z"/>
        <path class="cls-2" d="M161.33,37.69a2,2,0,0,1-.41-1.37V15.7A14.13,14.13,0,0,1,165,13.79,17,17,0,0,1,170.1,13Q181,13,181,22.25a9.44,9.44,0,0,1-2.3,6.66,8.48,8.48,0,0,1-6.52,2.48,9,9,0,0,1-2.28-.29,5.46,5.46,0,0,1-1.82-.79v6a1.9,1.9,0,0,1-.43,1.37,2,2,0,0,1-1.48.43h-3.35A2,2,0,0,1,161.33,37.69Zm11.6-12.33a5.69,5.69,0,0,0,.77-3.15,4.69,4.69,0,0,0-.92-3.29A3.73,3.73,0,0,0,170,18a4.76,4.76,0,0,0-2,.33V24a2.43,2.43,0,0,0,.69,1.87,3,3,0,0,0,4.23-.52Z"/>
        <path class="cls-2" d="M184.46,28.93a8.62,8.62,0,0,1-2.73-6.72,8.58,8.58,0,0,1,2.73-6.71c1.83-1.65,4.38-2.47,7.67-2.47s5.85.82,7.69,2.47a8.56,8.56,0,0,1,2.75,6.71,8.6,8.6,0,0,1-2.75,6.72q-2.76,2.46-7.69,2.46C188.84,31.39,186.29,30.57,184.46,28.93Zm10.84-6.72q0-4-3.17-4t-3.17,4a4.72,4.72,0,0,0,.83,3,2.85,2.85,0,0,0,2.34,1Q195.3,26.24,195.3,22.21Z"/>
        <path class="cls-2" d="M206.06,28.93a8.62,8.62,0,0,1-2.73-6.72,8.58,8.58,0,0,1,2.73-6.71c1.83-1.65,4.38-2.47,7.67-2.47s5.85.82,7.69,2.47a8.56,8.56,0,0,1,2.75,6.71,8.6,8.6,0,0,1-2.75,6.72q-2.76,2.46-7.69,2.46C210.44,31.39,207.89,30.57,206.06,28.93Zm10.84-6.72q0-4-3.17-4t-3.17,4a4.72,4.72,0,0,0,.83,3,2.85,2.85,0,0,0,2.34,1Q216.9,26.24,216.9,22.21Z"/>
        <path class="cls-2" d="M227,30.42a2,2,0,0,1-.41-1.37V8.21A1.93,1.93,0,0,1,227,6.82a1.94,1.94,0,0,1,1.44-.45h3.49a2,2,0,0,1,1.48.45,1.93,1.93,0,0,1,.43,1.39V29.05a1.86,1.86,0,0,1-.43,1.37,2,2,0,0,1-1.48.43h-3.49A2,2,0,0,1,227,30.42Z"/>
        <path class="cls-2" d="M105.86,72.41a8.61,8.61,0,0,1-2-6.13,10,10,0,0,1,1.39-5.3,9.23,9.23,0,0,1,3.92-3.51A13.31,13.31,0,0,1,115,56.23a17.78,17.78,0,0,1,4.85.6,14.35,14.35,0,0,1,3.87,1.71v14.4a1.19,1.19,0,0,1-.26.9,1.64,1.64,0,0,1-1,.21h-3.68a1.29,1.29,0,0,1-.61-.12,1.08,1.08,0,0,1-.36-.42l-.47-1.08a6.2,6.2,0,0,1-2.5,1.64,10.49,10.49,0,0,1-3.54.52A7,7,0,0,1,105.86,72.41ZM116.17,69a2.41,2.41,0,0,0,.79-1.94V61.45a4.09,4.09,0,0,0-1.72-.32,3.79,3.79,0,0,0-3,1.33,5.64,5.64,0,0,0-1.13,3.74q0,3.49,2.92,3.5A3.23,3.23,0,0,0,116.17,69Z"/>
        <path class="cls-2" d="M127.22,73.62a1.9,1.9,0,0,1-.43-1.37V57.89A1.22,1.22,0,0,1,127,57a1.41,1.41,0,0,1,1-.24h3.7a1.37,1.37,0,0,1,.67.13.51.51,0,0,1,.27.45l.18,1.08a7,7,0,0,1,2.65-1.6,10.55,10.55,0,0,1,3.65-.6,6.76,6.76,0,0,1,4.72,1.64,6.22,6.22,0,0,1,1.8,4.84v9.54a1.9,1.9,0,0,1-.42,1.37,2,2,0,0,1-1.46.43h-3.49a2.11,2.11,0,0,1-1.49-.43,1.82,1.82,0,0,1-.45-1.37V63.18a2.14,2.14,0,0,0-.47-1.55,2,2,0,0,0-1.48-.47,2.46,2.46,0,0,0-1.71.58,2,2,0,0,0-.63,1.58v8.93a1.9,1.9,0,0,1-.41,1.37,2,2,0,0,1-1.46.43H128.7A2,2,0,0,1,127.22,73.62Z"/>
        <path class="cls-2" d="M150.55,72.25c-1.8-1.56-2.7-3.87-2.7-7a9.25,9.25,0,0,1,2.31-6.6,8.44,8.44,0,0,1,6.51-2.47,9.86,9.86,0,0,1,2.31.27,5.75,5.75,0,0,1,1.76.7V51.41a1.93,1.93,0,0,1,.43-1.39,2,2,0,0,1,1.48-.45H166a2,2,0,0,1,1.47.45,1.93,1.93,0,0,1,.43,1.39V72a13.15,13.15,0,0,1-4,1.83,18.76,18.76,0,0,1-5.25.72Q153.25,74.59,150.55,72.25Zm10.23-3V63.5c0-1.58-.86-2.37-2.56-2.37a2.67,2.67,0,0,0-2.36,1.13,5.44,5.44,0,0,0-.77,3.08,4.88,4.88,0,0,0,.93,3.35,3.67,3.67,0,0,0,2.81,1A4.11,4.11,0,0,0,160.78,69.3Z"/>
        <path class="cls-2" d="M182.84,72.72c-.45-.29-.68-.54-.68-.76a1.38,1.38,0,0,1,.18-.54l1.51-2.7a.65.65,0,0,1,.54-.43,1.37,1.37,0,0,1,.61.22,13.18,13.18,0,0,0,2.58,1,10.19,10.19,0,0,0,2.79.45,4.11,4.11,0,0,0,1.65-.24.79.79,0,0,0,.51-.77c0-.34-.24-.62-.71-.85a19.46,19.46,0,0,0-2.53-.88l-.8-.21a11.9,11.9,0,0,1-4.31-2.06,4.08,4.08,0,0,1-1.34-3.27,4.47,4.47,0,0,1,2.27-4,11.42,11.42,0,0,1,6.08-1.41,17.91,17.91,0,0,1,4.14.43,14.39,14.39,0,0,1,3.39,1.3c.43.24.65.5.65.79a1.5,1.5,0,0,1-.22.65l-1.47,2.34c-.17.26-.34.4-.51.4a1.32,1.32,0,0,1-.58-.22,8.87,8.87,0,0,0-2-.76,9.27,9.27,0,0,0-2.23-.28q-2.49,0-2.49,1.08,0,.49.81.84a16.11,16.11,0,0,0,2.51.74l1.09.29a10.53,10.53,0,0,1,1.17.36,12.53,12.53,0,0,1,2.67,1.24,3.72,3.72,0,0,1,1.33,1.48,5.08,5.08,0,0,1,.39,2.14,4.55,4.55,0,0,1-.93,2.79,6.49,6.49,0,0,1-2.88,2,13.38,13.38,0,0,1-4.79.75A16.89,16.89,0,0,1,182.84,72.72Z"/>
        <path class="cls-2" d="M202.62,80.89a2,2,0,0,1-.41-1.37V58.9A14.13,14.13,0,0,1,206.28,57a17,17,0,0,1,5.11-.76q10.88,0,10.87,9.22a9.44,9.44,0,0,1-2.3,6.66,8.48,8.48,0,0,1-6.52,2.48,8.59,8.59,0,0,1-2.28-.29,5.46,5.46,0,0,1-1.82-.79v6a1.86,1.86,0,0,1-.43,1.37,2,2,0,0,1-1.48.43h-3.35A2,2,0,0,1,202.62,80.89Zm11.6-12.33a5.69,5.69,0,0,0,.77-3.15,4.64,4.64,0,0,0-.92-3.29,3.73,3.73,0,0,0-2.82-1,4.76,4.76,0,0,0-1.95.33v5.72a2.43,2.43,0,0,0,.69,1.87,3,3,0,0,0,4.23-.52Z"/>
        <path class="cls-2" d="M225.05,72.41a8.65,8.65,0,0,1-2-6.13A10,10,0,0,1,224.4,61a9.32,9.32,0,0,1,3.93-3.51,13.25,13.25,0,0,1,5.85-1.24,17.7,17.7,0,0,1,4.84.6,14.35,14.35,0,0,1,3.87,1.71v14.4a1.2,1.2,0,0,1-.25.9,1.7,1.7,0,0,1-1,.21H238a1.24,1.24,0,0,1-.61-.12.94.94,0,0,1-.36-.42l-.47-1.08a6.27,6.27,0,0,1-2.5,1.64,10.59,10.59,0,0,1-3.55.52A7,7,0,0,1,225.05,72.41ZM235.37,69a2.44,2.44,0,0,0,.79-1.94V61.45a4.14,4.14,0,0,0-1.73-.32,3.77,3.77,0,0,0-3,1.33,5.59,5.59,0,0,0-1.14,3.74c0,2.33,1,3.5,2.92,3.5A3.24,3.24,0,0,0,235.37,69Z"/>
        <path class="cls-2" d="M257.83,72.72c-.46-.29-.68-.54-.68-.76a1.38,1.38,0,0,1,.18-.54l1.51-2.7c.14-.28.32-.43.54-.43a1.37,1.37,0,0,1,.61.22,13.31,13.31,0,0,0,2.57,1,10.31,10.31,0,0,0,2.79.45,4.17,4.17,0,0,0,1.66-.24.78.78,0,0,0,.5-.77c0-.34-.23-.62-.7-.85a19.76,19.76,0,0,0-2.54-.88l-.79-.21a12,12,0,0,1-4.32-2.06,4.07,4.07,0,0,1-1.33-3.27,4.47,4.47,0,0,1,2.27-4,11.42,11.42,0,0,1,6.08-1.41,17.91,17.91,0,0,1,4.14.43,14.39,14.39,0,0,1,3.39,1.3c.43.24.64.5.64.79a1.46,1.46,0,0,1-.21.65l-1.48,2.34c-.17.26-.33.4-.5.4a1.28,1.28,0,0,1-.58-.22,9.06,9.06,0,0,0-2-.76,9.35,9.35,0,0,0-2.24-.28c-1.65,0-2.48.36-2.48,1.08q0,.49.81.84a15.92,15.92,0,0,0,2.5.74l1.1.29a10.53,10.53,0,0,1,1.17.36,12.18,12.18,0,0,1,2.66,1.24,3.68,3.68,0,0,1,1.34,1.48,5.08,5.08,0,0,1,.39,2.14,4.55,4.55,0,0,1-.93,2.79,6.49,6.49,0,0,1-2.88,2,13.42,13.42,0,0,1-4.79.75A16.86,16.86,0,0,1,257.83,72.72Z"/>
        <path class="cls-2" d="M281.57,73.58a8.35,8.35,0,0,1-3.72-3,8.51,8.51,0,0,1-1.37-4.93q0-4.57,2.59-7c1.73-1.6,4.21-2.41,7.45-2.41s5.58.79,7.22,2.36a8.62,8.62,0,0,1,2.47,6.53q0,1.8-1.59,1.8h-11.3a2.73,2.73,0,0,0,1.17,2.38,6.16,6.16,0,0,0,3.54.83,9.54,9.54,0,0,0,2.47-.27,9.76,9.76,0,0,0,2-.81,2,2,0,0,1,.57-.18c.22,0,.4.14.54.43l1.23,2.3a1.38,1.38,0,0,1,.18.54c0,.22-.15.42-.43.62a10.46,10.46,0,0,1-3.35,1.4,19.1,19.1,0,0,1-4.29.43A13.44,13.44,0,0,1,281.57,73.58Zm8.16-10.22a2.78,2.78,0,0,0-.8-2.12,3.28,3.28,0,0,0-2.37-.76,3.42,3.42,0,0,0-2.41.77,2.73,2.73,0,0,0-.83,2.11Z"/>
        <path class="cls-2" d="M299,73.62a1.9,1.9,0,0,1-.43-1.37V57.89a1.22,1.22,0,0,1,.24-.88,1.41,1.41,0,0,1,1-.24h3.7a1.37,1.37,0,0,1,.67.13.55.55,0,0,1,.27.45l.18,1a7.11,7.11,0,0,1,5.22-2.16,7.91,7.91,0,0,1,1.94.2,4.08,4.08,0,0,1,1.37.63.71.71,0,0,1,.36.58,1.77,1.77,0,0,1-.07.39l-1.15,3.28c-.1.33-.28.5-.54.5a1,1,0,0,1-.44-.14,4.69,4.69,0,0,0-2.33-.54,3.32,3.32,0,0,0-2.25.75,2.54,2.54,0,0,0-.89,2v8.35a2,2,0,0,1-.41,1.37,2,2,0,0,1-1.46.43h-3.49A2,2,0,0,1,299,73.62Z"/>
        <path class="cls-2" d="M322.25,73.8a2.39,2.39,0,0,1-.66-.94l-6.95-14.72a1.49,1.49,0,0,1-.18-.65.68.68,0,0,1,.2-.52.74.74,0,0,1,.55-.2h5.26a1.32,1.32,0,0,1,.83.22,1.49,1.49,0,0,1,.47.68l3.09,8.21,3.1-8.21a1.42,1.42,0,0,1,.47-.68,1.29,1.29,0,0,1,.82-.22h5.3a.76.76,0,0,1,.55.2.68.68,0,0,1,.2.52,1.49,1.49,0,0,1-.18.65l-6.95,14.72a2.39,2.39,0,0,1-.66.94,1.72,1.72,0,0,1-1,.25h-3.2A1.72,1.72,0,0,1,322.25,73.8Z"/>
        <path class="cls-2" d="M338.32,54.27a2.18,2.18,0,0,1-.64-1.57v-.86a2.21,2.21,0,0,1,.64-1.6,2.5,2.5,0,0,1,1.88-.67h2.59a2.52,2.52,0,0,1,1.91.67,2.22,2.22,0,0,1,.65,1.6v.86a2.19,2.19,0,0,1-.65,1.57,2.56,2.56,0,0,1-1.91.67H340.2A2.54,2.54,0,0,1,338.32,54.27Zm0,19.35a1.86,1.86,0,0,1-.43-1.37V58.61a1.93,1.93,0,0,1,.43-1.39,2,2,0,0,1,1.48-.45h3.45a2.09,2.09,0,0,1,1.5.45,1.89,1.89,0,0,1,.45,1.39V72.25a1.82,1.82,0,0,1-.45,1.37,2.13,2.13,0,0,1-1.5.43h-3.45A2,2,0,0,1,338.29,73.62Z"/>
        <path class="cls-2" d="M350.46,72.25a8.44,8.44,0,0,1-2.74-6.8A9.18,9.18,0,0,1,349,60.62a8.4,8.4,0,0,1,3.66-3.24,13,13,0,0,1,5.67-1.15,16.19,16.19,0,0,1,4.19.47,9.18,9.18,0,0,1,3,1.44.76.76,0,0,1,.4.65,1.59,1.59,0,0,1-.29.75l-1.48,2.56c-.17.34-.37.5-.61.5a1.56,1.56,0,0,1-.68-.28,8.73,8.73,0,0,0-1.82-.9,6.44,6.44,0,0,0-2.11-.29,3.79,3.79,0,0,0-2.89,1.15,4.37,4.37,0,0,0-1.1,3.17,3.84,3.84,0,0,0,4.17,4.25,6.24,6.24,0,0,0,2.09-.33,9.92,9.92,0,0,0,1.91-.9,1.77,1.77,0,0,1,.72-.29c.22,0,.41.17.58.51L366,71.46a1.43,1.43,0,0,1,.19.58.79.79,0,0,1-.44.61,11.88,11.88,0,0,1-3.29,1.46,16.59,16.59,0,0,1-4.27.48Q353.19,74.59,350.46,72.25Z"/>
        <path class="cls-2" d="M373,73.58a8.43,8.43,0,0,1-3.73-3,8.58,8.58,0,0,1-1.36-4.93q0-4.57,2.59-7c1.73-1.6,4.21-2.41,7.45-2.41s5.57.79,7.22,2.36a8.62,8.62,0,0,1,2.47,6.53q0,1.8-1.59,1.8h-11.3a2.73,2.73,0,0,0,1.17,2.38,6.16,6.16,0,0,0,3.54.83,9.54,9.54,0,0,0,2.47-.27,9.76,9.76,0,0,0,2-.81,2,2,0,0,1,.57-.18c.22,0,.4.14.54.43l1.23,2.3a1.38,1.38,0,0,1,.18.54c0,.22-.15.42-.43.62a10.55,10.55,0,0,1-3.35,1.4,19.1,19.1,0,0,1-4.29.43A13.44,13.44,0,0,1,373,73.58Zm8.15-10.22a2.78,2.78,0,0,0-.79-2.12,3.29,3.29,0,0,0-2.37-.76,3.46,3.46,0,0,0-2.42.77,2.76,2.76,0,0,0-.82,2.11Z"/>
        <path class="cls-2" d="M390,72.72c-.46-.29-.69-.54-.69-.76a1.38,1.38,0,0,1,.18-.54l1.51-2.7c.15-.28.33-.43.54-.43a1.33,1.33,0,0,1,.61.22,13.43,13.43,0,0,0,2.58,1,10.19,10.19,0,0,0,2.79.45,4.08,4.08,0,0,0,1.65-.24.79.79,0,0,0,.51-.77c0-.34-.24-.62-.7-.85a20.35,20.35,0,0,0-2.54-.88l-.79-.21a11.88,11.88,0,0,1-4.32-2.06A4.07,4.07,0,0,1,390,61.67a4.46,4.46,0,0,1,2.26-4,11.44,11.44,0,0,1,6.09-1.41,18,18,0,0,1,4.14.43,14.48,14.48,0,0,1,3.38,1.3c.43.24.65.5.65.79a1.38,1.38,0,0,1-.22.65l-1.47,2.34c-.17.26-.34.4-.51.4a1.29,1.29,0,0,1-.57-.22,9.15,9.15,0,0,0-2-.76,9.27,9.27,0,0,0-2.23-.28Q397,60.88,397,62q0,.49.81.84a16.11,16.11,0,0,0,2.51.74l1.09.29a10.53,10.53,0,0,1,1.17.36,12.3,12.3,0,0,1,2.67,1.24,3.65,3.65,0,0,1,1.33,1.48,5.07,5.07,0,0,1,.4,2.14,4.56,4.56,0,0,1-.94,2.79,6.38,6.38,0,0,1-2.88,2,13.34,13.34,0,0,1-4.79.75A16.82,16.82,0,0,1,390,72.72Z"/>
      </g>
    </g>
  </g>
</svg>
