<svg width="38" height="38" viewBox="0 0 38 38" fill="none" xmlns="http://www.w3.org/2000/svg">
<rect width="38" height="38" fill="#5A5858"/>
<path d="M30.0833 9.50008C28.3416 9.50008 26.9166 10.9251 26.9166 12.6667V23.4334C25.9666 24.3834 25.3333 25.6501 25.3333 26.9167C25.3333 29.6084 27.3916 31.6667 30.0833 31.6667C32.775 31.6667 34.8333 29.6084 34.8333 26.9167C34.8333 25.4917 34.2 24.2251 33.25 23.4334V12.6667C33.25 10.9251 31.825 9.50008 30.0833 9.50008ZM30.0833 11.0834C30.875 11.0834 31.6666 11.7167 31.6666 12.6667V14.2501H28.5V12.6667C28.5 11.7167 29.2916 11.0834 30.0833 11.0834ZM23.75 32.1417C22.325 32.7751 20.9 33.2501 19.475 33.2501C15.9916 33.2501 12.5083 30.0834 8.86663 30.0834C6.96663 30.0834 5.06663 30.5584 3.0083 31.1917V28.0251C5.06663 27.3918 6.96663 26.9167 9.02497 26.9167C12.5083 26.9167 15.9916 30.0834 19.6333 30.0834C21.0583 30.0834 22.4833 29.6084 23.9083 28.9751V32.1417H23.75ZM19.475 26.9167C20.9 26.9167 22.325 26.4417 23.75 25.8084V22.6417C22.6416 23.1167 21.6916 23.4334 20.5833 23.7501V7.91675C20.5833 6.96675 21.2166 6.33341 22.1666 6.33341H26.6C25.9666 4.43341 24.225 3.16675 22.1666 3.16675C19.475 3.16675 17.4166 5.22508 17.4166 7.91675V9.50008H9.49997V7.91675C9.49997 6.96675 10.1333 6.33341 11.0833 6.33341H15.5166C14.8833 4.43341 13.1416 3.16675 11.0833 3.16675C8.39163 3.16675 6.3333 5.22508 6.3333 7.91675V20.9001C5.22497 21.0584 4.27497 21.3751 3.16663 21.8501V25.0167C5.06663 24.2251 6.96663 23.7501 9.02497 23.7501C12.5083 23.7501 15.9916 26.9167 19.475 26.9167ZM9.49997 12.6667H17.4166V15.8334H9.49997V12.6667ZM9.49997 19.0001H17.4166V23.4334C14.725 22.6417 12.1916 20.9001 9.49997 20.5834V19.0001Z" fill="#D1DFEF"/>
</svg>
