<svg width="375" height="321" viewBox="0 0 375 321" fill="none" xmlns="http://www.w3.org/2000/svg">
<g filter="url(#filter0_d_131_253)">
<path d="M82.0988 12.507C111.347 13.602 145.877 10.4664 180.378 7.1966L184.344 6.8203C217.531 3.66994 250.504 0.539822 278.608 1.05617C303.017 1.50462 327.112 4.93903 345.111 8.26315C354.109 9.92498 361.58 11.5587 366.801 12.7767C369.412 13.3857 371.459 13.8908 372.854 14.2435C373.239 14.341 373.575 14.4268 373.859 14.5H0.117606V312.5H375.118V14.5H375.067C375.081 14.4475 375.098 14.3857 375.118 14.313C375.248 13.8303 375.247 13.8301 375.247 13.8301L375.246 13.8296L375.239 13.8278L375.212 13.8207L375.108 13.7929L374.698 13.6847C374.336 13.5899 373.799 13.451 373.099 13.274C371.699 12.9199 369.645 12.4134 367.028 11.8029C361.795 10.5819 354.308 8.94486 345.292 7.27978C327.264 3.9501 303.11 0.506156 278.627 0.056342C250.464 -0.46108 217.44 2.67396 184.277 5.82217L180.283 6.20106C145.768 9.47233 111.306 12.5998 82.1364 11.5077C61.2946 10.7273 40.8185 7.8683 25.5492 5.20312C17.9159 3.87071 11.5859 2.58714 7.16497 1.63686C4.95452 1.16172 3.22161 0.769935 2.04143 0.497048C1.45159 0.360604 0.99993 0.25389 0.695731 0.181348L0.351981 0.0987214L0.265555 0.0776738L0.244071 0.0723981L0.238699 0.0710954C0.238699 0.0710954 0.236746 0.070691 0.117606 0.556258C-0.00153491 1.04182 -0.00153491 1.04187 0.000418213 1.04232L0.00627759 1.04372L0.0282502 1.04919L0.116629 1.07062L0.117606 1.07086L0.463797 1.15403C0.769949 1.22709 1.22405 1.33434 1.81634 1.47133C3.00091 1.7453 4.7387 2.13823 6.95452 2.61453C11.3862 3.5671 17.7289 4.85325 25.3774 6.18823C40.6721 8.85783 61.196 11.7243 82.0988 12.507Z" fill="#E2E9EB"/>
<path d="M82.0988 12.507C111.347 13.602 145.877 10.4664 180.378 7.1966L184.344 6.8203C217.531 3.66994 250.504 0.539822 278.608 1.05617C303.017 1.50462 327.112 4.93903 345.111 8.26315C354.109 9.92498 361.58 11.5587 366.801 12.7767C369.412 13.3857 371.459 13.8908 372.854 14.2435C373.239 14.341 373.575 14.4268 373.859 14.5H0.117606V312.5H375.118V14.5H375.067C375.081 14.4475 375.098 14.3857 375.118 14.313C375.248 13.8303 375.247 13.8301 375.247 13.8301L375.246 13.8296L375.239 13.8278L375.212 13.8207L375.108 13.7929L374.698 13.6847C374.336 13.5899 373.799 13.451 373.099 13.274C371.699 12.9199 369.645 12.4134 367.028 11.8029C361.795 10.5819 354.308 8.94486 345.292 7.27978C327.264 3.9501 303.11 0.506156 278.627 0.056342C250.464 -0.46108 217.44 2.67396 184.277 5.82217L180.283 6.20106C145.768 9.47233 111.306 12.5998 82.1364 11.5077C61.2946 10.7273 40.8185 7.8683 25.5492 5.20312C17.9159 3.87071 11.5859 2.58714 7.16497 1.63686C4.95452 1.16172 3.22161 0.769935 2.04143 0.497048C1.45159 0.360604 0.99993 0.25389 0.695731 0.181348L0.351981 0.0987214L0.265555 0.0776738L0.244071 0.0723981L0.238699 0.0710954C0.238699 0.0710954 0.236746 0.070691 0.117606 0.556258C-0.00153491 1.04182 -0.00153491 1.04187 0.000418213 1.04232L0.00627759 1.04372L0.0282502 1.04919L0.116629 1.07062L0.117606 1.07086L0.463797 1.15403C0.769949 1.22709 1.22405 1.33434 1.81634 1.47133C3.00091 1.7453 4.7387 2.13823 6.95452 2.61453C11.3862 3.5671 17.7289 4.85325 25.3774 6.18823C40.6721 8.85783 61.196 11.7243 82.0988 12.507Z" fill="url(#paint0_linear_131_253)" fill-opacity="0.1"/>
<path d="M180.378 7.1966C145.877 10.4664 111.347 13.602 82.0988 12.507C61.196 11.7243 40.6721 8.85783 25.3774 6.18823C17.7289 4.85325 11.3862 3.5671 6.95452 2.61453C4.7387 2.13823 3.00091 1.7453 1.81634 1.47133C1.22405 1.33434 0.769949 1.22709 0.463797 1.15403L0.117606 1.07086V14.5H373.859C373.575 14.4268 373.239 14.341 372.854 14.2435C371.459 13.8908 369.412 13.3857 366.801 12.7767C361.58 11.5587 354.109 9.92498 345.111 8.26315C327.112 4.93903 303.017 1.50462 278.608 1.05617C250.504 0.539822 217.531 3.66994 184.344 6.8203L180.378 7.1966Z" fill="#E2E9EB"/>
<path d="M180.378 7.1966C145.877 10.4664 111.347 13.602 82.0988 12.507C61.196 11.7243 40.6721 8.85783 25.3774 6.18823C17.7289 4.85325 11.3862 3.5671 6.95452 2.61453C4.7387 2.13823 3.00091 1.7453 1.81634 1.47133C1.22405 1.33434 0.769949 1.22709 0.463797 1.15403L0.117606 1.07086V14.5H373.859C373.575 14.4268 373.239 14.341 372.854 14.2435C371.459 13.8908 369.412 13.3857 366.801 12.7767C361.58 11.5587 354.109 9.92498 345.111 8.26315C327.112 4.93903 303.017 1.50462 278.608 1.05617C250.504 0.539822 217.531 3.66994 184.344 6.8203L180.378 7.1966Z" fill="url(#paint1_linear_131_253)" fill-opacity="0.1"/>
</g>
<defs>
<filter id="filter0_d_131_253" x="-4" y="0" width="383.247" height="320.5" filterUnits="userSpaceOnUse" color-interpolation-filters="sRGB">
<feFlood flood-opacity="0" result="BackgroundImageFix"/>
<feColorMatrix in="SourceAlpha" type="matrix" values="0 0 0 0 0 0 0 0 0 0 0 0 0 0 0 0 0 0 127 0" result="hardAlpha"/>
<feOffset dy="4"/>
<feGaussianBlur stdDeviation="2"/>
<feComposite in2="hardAlpha" operator="out"/>
<feColorMatrix type="matrix" values="0 0 0 0 0 0 0 0 0 0 0 0 0 0 0 0 0 0 0.25 0"/>
<feBlend mode="normal" in2="BackgroundImageFix" result="effect1_dropShadow_131_253"/>
<feBlend mode="normal" in="SourceGraphic" in2="effect1_dropShadow_131_253" result="shape"/>
</filter>
<linearGradient id="paint0_linear_131_253" x1="187.624" y1="0" x2="187.624" y2="312.5" gradientUnits="userSpaceOnUse">
<stop offset="0.291667" stop-opacity="0"/>
<stop offset="1"/>
</linearGradient>
<linearGradient id="paint1_linear_131_253" x1="187.624" y1="0" x2="187.624" y2="312.5" gradientUnits="userSpaceOnUse">
<stop offset="0.291667" stop-opacity="0"/>
<stop offset="1"/>
</linearGradient>
</defs>
</svg>
